<svg xmlns="http://www.w3.org/2000/svg" width="70" height="70" viewBox="0 0 70 70"><g fill="none" fill-rule="evenodd" stroke="#6A84C4" stroke-width="2"><circle cx="18" cy="18" r="18" transform="translate(17 19)"/><g transform="translate(25 11)"><path fill="#FFF" d="M0 16c0 2.21 4.477 4 10 4s10-1.79 10-4"/><path fill="#FFF" stroke-linecap="round" stroke-linejoin="round" d="M0 16V4h20v12"/><path fill="#FFF" d="M0 10c0 2.21 4.477 4 10 4s10-1.79 10-4"/><ellipse cx="10" cy="4" fill="#D8E3FF" rx="10" ry="4"/></g><g transform="translate(10 37)"><path fill="#FFF" d="M0 16c0 2.21 4.477 4 10 4s10-1.79 10-4"/><path fill="#FFF" stroke-linecap="round" stroke-linejoin="round" d="M0 16V4h20v12"/><path fill="#FFF" d="M0 10c0 2.21 4.477 4 10 4s10-1.79 10-4"/><ellipse cx="10" cy="4" fill="#D8E3FF" rx="10" ry="4"/></g><g transform="translate(40 37)"><path fill="#FFF" d="M0 16c0 2.21 4.477 4 10 4s10-1.79 10-4"/><path fill="#FFF" stroke-linecap="round" stroke-linejoin="round" d="M0 16V4h20v12"/><path fill="#FFF" d="M0 10c0 2.21 4.477 4 10 4s10-1.79 10-4"/><ellipse cx="10" cy="4" fill="#D8E3FF" rx="10" ry="4"/></g></g></svg>