<svg xmlns="http://www.w3.org/2000/svg" width="70" height="70" viewBox="0 0 70 70"><g fill="none" fill-rule="evenodd" transform="translate(13 17)"><path stroke="#6A84C4" stroke-linecap="round" stroke-linejoin="round" stroke-width="2" d="M24 34H4a4 4 0 0 1-4-4V4a4 4 0 0 1 4-4h35a4 4 0 0 1 4 4v9"/><path fill="#D8E3FF" stroke="#6A84C4" stroke-width="2" d="M4 0h35a4 4 0 0 1 4 4v4H0V4a4 4 0 0 1 4-4z"/><path fill="#6A84C4" stroke="#6A84C4" d="M6 5a1 1 0 1 0 0-2 1 1 0 0 0 0 2zm4 0a1 1 0 1 0 0-2 1 1 0 0 0 0 2zm4 0a1 1 0 1 0 0-2 1 1 0 0 0 0 2z"/><path d="M35.327 16.88c5.05-1.37 10.597.7 13.425 5.406.575.956 1 1.96 1.285 2.986l-3.685-2.127m3.786 8.11a11.964 11.964 0 0 1-5.49 7.497 11.965 11.965 0 0 1-9.29 1.305l4.007-2.328m-9.26-.653a12.018 12.018 0 0 1-1.925-2.43c-2.836-4.72-2.046-10.61 1.563-14.425l.317 3.962" stroke="#6A84C4" stroke-linecap="round" stroke-linejoin="round" stroke-width="2"/><path stroke="#D8E3FF" stroke-linecap="round" stroke-linejoin="round" stroke-width="2" d="M5 16h19M5 21h15"/><circle cx="38.5" cy="28.5" r="4.5" fill="#D8E3FF"/></g></svg>